<svg xmlns="http://www.w3.org/2000/svg" viewBox="53 184.102 460.38999938964844 206.79687500000003"> <g transform="rotate(0180 166.08222977256412 287.5004375)"><svg xmlns="http://www.w3.org/2000/svg" xmlns:xlink="http://www.w3.org/1999/xlink" version="1.1" id="Layer_1" x="123" y="254.102" viewBox="56 155.8000030517578 888 688.4000244140625" xml:space="preserve" height="66.796875" width="86.16445954512824" preserveAspectRatio="xMinYMin" enable-background="new 0 0 1000 1000" style="overflow: visible;"><polygon points="498.7,724.9 879.3,559.1 500.2,743.6 " style="fill: #ff5436; fill-opacity: 1;"></polygon><polygon points="498.7,627.6 814.5,490.8 500.2,645.5 " style="fill: #ff5436; fill-opacity: 1;"></polygon><polygon points="499.8,528 749.7,422.6 500.2,547.3 " style="fill: #ff5436; fill-opacity: 1;"></polygon><polygon points="498.7,430.6 685,354.3 499.8,449.6 " style="fill: #ff5436; fill-opacity: 1;"></polygon><polygon points="498.7,333.3 620.2,286 500.2,351 " style="fill: #ff5436; fill-opacity: 1;"></polygon><polygon points="496.5,237.1 554,219.2 498.8,254.3 " style="fill: #ff5436; fill-opacity: 1;"></polygon><polygon points="496.5,155.8 514.4,834.5 485.2,834.6 " style="fill: #ff5436; fill-opacity: 1;"></polygon><path d="M56,627.9c37.8,15.5,75.3,31.7,112.8,47.8l56.1,24.5l28,12.4l28,12.4c37.2,16.7,74.4,33.5,111.5,50.4l55.6,25.5l51.8,24  l51.9-24.1l55.7-25.6c37.1-17,74.4-33.8,111.6-50.5l28-12.5l28-12.4l56.1-24.6c37.5-16.2,75-32.4,112.9-47.9  c-36.2,19-72.7,37.3-109.2,55.7l-54.9,27.2l-27.5,13.5l-27.5,13.4c-36.7,17.9-73.6,35.6-110.5,53.1L559,816.5l-55.5,26l-3.7,1.7  l-3.7-1.7l-55.4-25.9l-55.3-26.2c-36.9-17.5-73.6-35.2-110.4-53L247.5,724L220,710.6l-54.9-27.1C128.6,665.1,92.1,646.9,56,627.9z" style="fill: #ff5436; fill-opacity: 1;"></path></svg></g> <svg y="273.9700004196167" viewBox="3.2300000190734863 6.420000076293945 218.38999938964844 27.059999465942383" x="225" height="27.059999465942383" width="218.38999938964844" style="overflow: visible;"><g fill="#ffffff" fill-opacity="1" style=""><path d="M15.28 32.38Q14.29 32.72 13.01 32.87Q11.74 33.02 9.50 33.02L9.50 33.02L3.23 33.02Q3.72 32.91 4.29 32.17Q4.86 31.43 4.86 29.30L4.86 29.30L4.86 10.49Q4.86 8.51 4.33 7.77Q3.80 7.03 3.27 6.88L3.27 6.88L9.50 6.88Q11.93 6.88 13.21 7.09Q14.48 7.30 15.43 7.71L15.43 7.71Q17.10 8.51 18.01 9.96Q18.92 11.40 18.92 13.07L18.92 13.07Q18.92 15.62 17.38 17.46Q15.85 19.30 13.34 19.84L13.34 19.84Q15.05 20.03 16.59 20.82Q18.13 21.62 19.09 22.99Q20.06 24.36 20.06 26.11L20.06 26.11Q20.06 28.54 18.77 30.08Q17.48 31.62 15.28 32.38L15.28 32.38ZM14.21 9.54Q13.45 8.97 12.58 8.68Q11.70 8.40 10.22 8.40L10.22 8.40L7.60 8.40L7.60 19.19L10.68 19.19Q12.05 19.19 12.96 18.77Q13.87 18.35 14.55 17.67L14.55 17.67Q15.28 16.95 15.69 15.92Q16.11 14.90 16.11 13.83L16.11 13.83Q16.11 12.54 15.64 11.40Q15.16 10.26 14.21 9.54L14.21 9.54ZM15.01 21.81Q14.29 21.24 13.22 20.98Q12.16 20.71 10.34 20.71L10.34 20.71L7.60 20.71L7.60 31.50L11.21 31.50Q13.95 31.50 15.48 30.21Q17.02 28.92 17.02 26.11L17.02 26.11Q17.02 23.48 15.01 21.81L15.01 21.81ZM40.05 33.02L25.73 33.02Q25.73 33.14 26.18 32.85Q26.64 32.57 27.00 31.71Q27.36 30.86 27.36 29.22L27.36 29.22L27.36 10.56Q27.36 9.01 27.00 8.19Q26.64 7.37 26.18 7.07Q25.73 6.76 25.73 6.88L25.73 6.88L39.48 6.88L39.48 10.68Q38.80 8.40 35.38 8.40L35.38 8.40L30.10 8.40L30.10 19.19L36.63 19.19Q37.39 19.19 37.92 18.94Q38.46 18.70 38.72 18.43Q38.99 18.16 39.03 18.09L39.03 18.09L39.03 21.77Q38.99 21.70 38.72 21.43Q38.46 21.17 37.94 20.94Q37.43 20.71 36.67 20.71L36.67 20.71L30.10 20.71L30.10 31.50L36.02 31.50Q37.73 31.50 38.97 30.80Q40.20 30.10 40.74 28.99L40.74 28.99L40.05 33.02ZM53.43 19.87Q55.18 19.87 56.47 19.06Q57.76 18.24 58.43 16.93Q59.09 15.62 59.09 14.17L59.09 14.17Q59.09 12.69 58.46 11.38Q57.84 10.07 56.54 9.23Q55.25 8.40 53.39 8.40L53.39 8.40L50.16 8.40L50.16 29.53Q50.16 31.05 50.54 31.82Q50.92 32.60 51.38 32.85Q51.83 33.10 51.83 33.02L51.83 33.02L45.79 33.02Q45.79 33.10 46.25 32.83Q46.70 32.57 47.06 31.81Q47.42 31.05 47.42 29.53L47.42 29.53L47.42 10.53Q47.42 8.97 47.06 8.15Q46.70 7.33 46.25 7.05Q45.79 6.76 45.79 6.88L45.79 6.88L53.31 6.88Q56.28 6.88 58.20 7.85Q60.12 8.82 60.97 10.36Q61.83 11.89 61.83 13.72L61.83 13.72Q61.83 15.24 61.10 16.70Q60.38 18.16 59.03 19.25Q57.68 20.33 55.90 20.75L55.90 20.75L55.29 20.86L61.98 29.37Q63.31 30.86 64.18 31.65Q65.06 32.45 65.45 32.72Q65.85 32.98 65.93 33.02L65.93 33.02L61.48 33.02L51.15 19.87L53.43 19.87ZM90.33 33.02L85.65 33.02L73.72 19.72L73.72 29.53Q73.72 31.43 74.25 32.19Q74.78 32.95 75.24 33.02L75.24 33.02L69.39 33.02Q69.84 32.95 70.41 32.20Q70.98 31.46 70.98 29.53L70.98 29.53L70.98 10.41Q70.98 8.47 70.45 7.75Q69.92 7.03 69.39 6.88L69.39 6.88L75.24 6.88Q74.78 6.95 74.25 7.70Q73.72 8.44 73.72 10.41L73.72 10.41L73.72 19.61L82.73 10.64Q84.89 8.47 84.89 7.68L84.89 7.68Q84.89 6.99 84.36 6.88L84.36 6.88L90.33 6.88Q89.72 6.95 88.41 7.70Q87.10 8.44 85.04 10.49L85.04 10.49L76.53 18.92L86.15 29.37Q87.89 31.39 88.90 32.13Q89.91 32.87 90.33 33.02L90.33 33.02ZM91.96 20.25Q91.96 16.23 93.69 13.07Q95.42 9.92 98.55 8.17Q101.69 6.42 105.79 6.42L105.79 6.42Q109.21 6.42 112.20 7.92Q115.18 9.42 116.98 12.43Q118.79 15.43 118.79 19.65L118.79 19.65Q118.79 23.67 117.06 26.83Q115.33 29.98 112.20 31.73Q109.06 33.48 104.96 33.48L104.96 33.48Q101.54 33.48 98.55 31.98Q95.57 30.48 93.77 27.47Q91.96 24.47 91.96 20.25L91.96 20.25ZM115.75 20.22Q115.75 16.76 114.32 13.96Q112.90 11.17 110.41 9.59Q107.92 8.02 104.80 8.02L104.80 8.02Q101.95 8.02 99.73 9.46Q97.51 10.91 96.25 13.55Q95 16.19 95 19.68L95 19.68Q95 23.14 96.43 25.93Q97.85 28.73 100.34 30.30Q102.83 31.88 105.94 31.88L105.94 31.88Q108.79 31.88 111.02 30.44Q113.24 28.99 114.49 26.35Q115.75 23.71 115.75 20.22L115.75 20.22ZM144.78 30.70Q143.34 31.88 141.02 32.68Q138.70 33.48 136.34 33.48L136.34 33.48Q132.81 33.48 129.77 31.84Q126.73 30.21 124.89 27.13Q123.04 24.05 123.04 19.91L123.04 19.91Q123.04 16.04 124.74 12.96Q126.43 9.88 129.56 8.15Q132.70 6.42 136.88 6.42L136.88 6.42Q141.32 6.42 144.78 8.36L144.78 8.36L144.78 12.58Q143.60 10.49 141.36 9.25Q139.12 8.02 136.57 8.02L136.57 8.02Q133.34 8.02 130.97 9.54Q128.59 11.06 127.34 13.70Q126.08 16.34 126.08 19.61L126.08 19.61Q126.08 23.29 127.51 26.03Q128.93 28.77 131.37 30.23Q133.80 31.69 136.80 31.69L136.80 31.69Q141.63 31.69 144.78 28.88L144.78 28.88L144.78 30.70ZM149.80 20.25Q149.80 16.23 151.53 13.07Q153.25 9.92 156.39 8.17Q159.52 6.42 163.63 6.42L163.63 6.42Q167.05 6.42 170.03 7.92Q173.01 9.42 174.82 12.43Q176.62 15.43 176.62 19.65L176.62 19.65Q176.62 23.67 174.90 26.83Q173.17 29.98 170.03 31.73Q166.90 33.48 162.79 33.48L162.79 33.48Q159.37 33.48 156.39 31.98Q153.41 30.48 151.60 27.47Q149.80 24.47 149.80 20.25L149.80 20.25ZM173.58 20.22Q173.58 16.76 172.16 13.96Q170.73 11.17 168.25 9.59Q165.76 8.02 162.64 8.02L162.64 8.02Q159.79 8.02 157.57 9.46Q155.34 10.91 154.09 13.55Q152.84 16.19 152.84 19.68L152.84 19.68Q152.84 23.14 154.26 25.93Q155.69 28.73 158.18 30.30Q160.66 31.88 163.78 31.88L163.78 31.88Q166.63 31.88 168.85 30.44Q171.08 28.99 172.33 26.35Q173.58 23.71 173.58 20.22L173.58 20.22ZM189.32 19.87Q191.06 19.87 192.36 19.06Q193.65 18.24 194.31 16.93Q194.98 15.62 194.98 14.17L194.98 14.17Q194.98 12.69 194.35 11.38Q193.72 10.07 192.43 9.23Q191.14 8.40 189.28 8.40L189.28 8.40L186.05 8.40L186.05 29.53Q186.05 31.05 186.43 31.82Q186.81 32.60 187.26 32.85Q187.72 33.10 187.72 33.02L187.72 33.02L181.68 33.02Q181.68 33.10 182.13 32.83Q182.59 32.57 182.95 31.81Q183.31 31.05 183.31 29.53L183.31 29.53L183.31 10.53Q183.31 8.97 182.95 8.15Q182.59 7.33 182.13 7.05Q181.68 6.76 181.68 6.88L181.68 6.88L189.20 6.88Q192.17 6.88 194.09 7.85Q196.00 8.82 196.86 10.36Q197.71 11.89 197.71 13.72L197.71 13.72Q197.71 15.24 196.99 16.70Q196.27 18.16 194.92 19.25Q193.57 20.33 191.79 20.75L191.79 20.75L191.18 20.86L197.87 29.37Q199.20 30.86 200.07 31.65Q200.94 32.45 201.34 32.72Q201.74 32.98 201.82 33.02L201.82 33.02L197.37 33.02L187.04 19.87L189.32 19.87ZM221.62 13.95Q221.62 16.15 220.57 17.88Q219.53 19.61 217.59 20.60Q215.65 21.58 213.03 21.58L213.03 21.58Q211.43 21.58 209.61 21.24L209.61 21.24L209.61 29.53Q209.61 31.01 209.99 31.79Q210.37 32.57 210.82 32.83Q211.28 33.10 211.28 33.02L211.28 33.02L205.24 33.02Q205.24 33.10 205.69 32.83Q206.15 32.57 206.51 31.81Q206.87 31.05 206.87 29.53L206.87 29.53L206.87 10.49Q206.87 8.97 206.51 8.17Q206.15 7.37 205.69 7.09Q205.24 6.80 205.24 6.88L205.24 6.88L212.69 6.88Q214.62 6.88 215.88 7.13Q217.13 7.37 218.08 7.87L218.08 7.87Q219.79 8.74 220.70 10.39Q221.62 12.05 221.62 13.95L221.62 13.95ZM218.69 14.44Q218.69 11.74 217.02 10.07Q215.35 8.40 212.57 8.40L212.57 8.40L209.61 8.40L209.61 19.76Q211.24 20.06 213.03 20.06L213.03 20.06Q215.69 20.06 217.19 18.52Q218.69 16.99 218.69 14.44L218.69 14.44Z" transform="translate(0, 0)"></path></g></svg></svg>