<?xml version="1.0" standalone="no"?>
<!DOCTYPE svg PUBLIC "-//W3C//DTD SVG 20010904//EN"
 "http://www.w3.org/TR/2001/REC-SVG-20010904/DTD/svg10.dtd">
<svg version="1.0" xmlns="http://www.w3.org/2000/svg"
 width="1432.000000pt" height="1432.000000pt" viewBox="0 0 1432.000000 1432.000000"
 preserveAspectRatio="xMidYMid meet">
<metadata>
Created by potrace 1.14, written by Peter Selinger 2001-2017
</metadata>
<g transform="translate(0.000000,1432.000000) scale(0.100000,-0.100000)"
fill="#000000" stroke="none">
<path d="M8788 11635 c-1 -2 -34 -6 -73 -9 -119 -10 -179 -16 -205 -22 -14 -3
-41 -7 -60 -10 -44 -6 -64 -10 -117 -22 -24 -5 -43 -8 -43 -5 0 3 -7 0 -15 -7
-8 -7 -15 -10 -15 -7 0 3 -24 -1 -52 -9 -29 -8 -65 -16 -80 -19 -67 -13 -351
-111 -445 -155 -24 -11 -50 -20 -58 -20 -8 0 -15 -4 -15 -10 0 -5 -4 -10 -10
-10 -13 0 -270 -127 -280 -139 -5 -6 -34 -24 -75 -45 -54 -29 -238 -156 -315
-219 -19 -15 -40 -31 -45 -35 -105 -75 -487 -457 -504 -506 -2 -6 -12 -18 -21
-26 -9 -8 -41 -51 -73 -95 -31 -44 -60 -84 -64 -90 -19 -22 -141 -222 -157
-256 -12 -25 -23 -36 -34 -33 -9 2 -44 11 -77 20 -33 8 -71 17 -85 20 -28 5
-63 12 -100 20 -25 5 -45 8 -112 18 -84 13 -108 16 -204 22 -158 11 -410 6
-494 -10 -14 -3 -47 -7 -75 -10 -54 -6 -84 -11 -155 -26 -25 -5 -56 -12 -70
-14 -14 -3 -40 -9 -58 -15 -18 -5 -35 -10 -37 -10 -3 -1 -6 -1 -7 -2 -2 0 -10
-2 -18 -4 -142 -35 -312 -100 -490 -188 -80 -39 -151 -77 -158 -83 -6 -7 -21
-16 -32 -19 -11 -3 -20 -11 -20 -16 0 -6 -4 -8 -9 -4 -5 3 -15 -1 -23 -8 -7
-7 -49 -37 -93 -67 -44 -30 -91 -64 -105 -77 -14 -13 -28 -23 -31 -23 -3 0
-17 -10 -31 -22 -14 -13 -51 -45 -82 -72 -97 -85 -247 -242 -314 -328 -20 -27
-40 -48 -44 -48 -4 0 -8 -7 -8 -15 0 -8 -4 -15 -10 -15 -5 0 -10 -7 -10 -15 0
-7 -6 -18 -13 -22 -16 -10 -92 -126 -89 -135 1 -5 -3 -8 -8 -8 -6 0 -10 -5
-10 -11 0 -6 -7 -17 -16 -26 -8 -9 -12 -19 -7 -23 4 -5 53 -27 108 -50 112
-47 332 -155 355 -174 8 -7 23 -16 32 -19 24 -9 210 -130 231 -151 9 -10 17
-14 17 -9 0 4 4 3 8 -2 4 -6 23 -22 42 -35 19 -14 44 -34 56 -45 11 -11 40
-36 64 -55 137 -110 339 -343 452 -520 58 -90 65 -98 88 -92 41 10 260 6 328
-7 173 -32 332 -117 456 -246 39 -40 76 -79 83 -88 23 -29 93 -147 87 -147 -3
0 1 -12 9 -27 25 -49 37 -77 41 -103 3 -14 5 -25 6 -25 2 0 6 -19 16 -75 8
-49 8 -239 0 -280 -3 -14 -7 -39 -10 -55 -2 -17 -16 -60 -29 -96 -65 -173
-148 -284 -305 -411 -73 -59 -278 -145 -359 -151 -18 -1 -33 -4 -33 -7 0 -7
-235 -4 -270 3 -14 3 -40 8 -58 11 -80 16 -292 108 -292 127 0 5 -4 9 -10 9
-29 0 -179 152 -232 235 -49 77 -88 157 -88 179 0 8 -4 17 -9 20 -18 11 -42
166 -43 271 0 153 22 248 93 390 16 33 29 64 29 69 0 12 -93 157 -137 216 -80
105 -184 215 -276 292 -34 28 -64 54 -67 57 -10 12 -76 56 -235 159 -11 6 -31
18 -45 24 -14 7 -38 21 -55 32 -16 12 -32 21 -35 20 -3 0 -36 14 -75 32 -161
75 -411 161 -548 189 -10 2 -26 6 -35 9 -9 3 -28 8 -42 10 -151 31 -210 42
-210 38 0 -2 -6 1 -13 7 -8 6 -16 9 -18 6 -3 -2 -30 -1 -60 4 -48 8 -62 6
-129 -21 -41 -16 -104 -44 -140 -61 -36 -17 -67 -31 -70 -32 -6 -1 -128 -65
-195 -102 -103 -57 -316 -209 -425 -303 -109 -94 -275 -264 -355 -365 -22 -27
-42 -52 -45 -55 -3 -3 -17 -21 -30 -40 -13 -19 -27 -37 -30 -40 -8 -7 -114
-168 -139 -213 -44 -77 -58 -104 -84 -152 -38 -74 -107 -225 -107 -236 0 -5
-4 -17 -9 -27 -5 -9 -22 -53 -36 -97 -15 -44 -30 -87 -33 -95 -3 -8 -6 -19 -8
-25 -1 -5 -12 -45 -23 -88 -12 -44 -23 -91 -26 -105 -2 -15 -8 -44 -13 -64 -5
-20 -7 -39 -5 -42 3 -2 1 -11 -3 -18 -5 -7 -9 -22 -10 -33 -1 -11 -5 -40 -8
-65 -18 -141 -21 -205 -21 -395 1 -187 6 -273 20 -355 4 -23 12 -77 20 -140
14 -104 137 -521 156 -528 5 -2 9 -10 9 -18 0 -7 12 -39 27 -71 14 -32 27 -60
27 -63 3 -15 72 -146 78 -148 4 -2 8 -9 8 -15 0 -14 101 -181 112 -185 4 -2 8
-8 8 -14 0 -5 8 -20 18 -33 9 -12 24 -33 32 -45 40 -60 181 -230 254 -307 44
-47 83 -89 84 -94 2 -5 7 -9 12 -9 4 0 23 -15 42 -33 50 -48 140 -127 145
-127 2 0 11 -7 20 -15 27 -28 206 -152 293 -204 47 -28 90 -55 97 -61 7 -5 17
-10 22 -10 6 0 33 -13 61 -30 28 -17 54 -30 57 -30 3 0 29 -11 57 -24 135 -65
408 -160 525 -182 7 -1 34 -8 60 -14 49 -11 61 -14 131 -25 25 -4 54 -9 65
-11 36 -7 149 -18 192 -18 24 -1 43 -3 43 -6 0 -3 190 -5 423 -4 407 1 476 5
572 34 17 5 41 12 55 14 14 3 43 10 65 16 48 13 61 16 100 25 44 11 342 103
395 123 8 3 17 6 20 7 6 2 26 10 119 46 40 16 80 29 87 29 8 0 14 4 14 9 0 7
48 22 66 20 4 0 10 3 13 8 3 5 31 19 61 32 126 52 435 204 528 260 29 17 54
31 56 31 4 0 122 70 176 104 73 47 155 101 160 106 3 3 25 19 50 35 50 34 193
140 229 170 13 11 56 47 95 80 70 59 288 273 336 330 60 73 182 239 200 274
11 22 24 42 30 46 5 3 10 15 10 26 0 10 4 19 9 19 7 0 40 66 46 90 0 3 6 15
13 28 12 20 8 30 -41 105 -57 86 -120 197 -112 197 3 0 -4 17 -15 37 -21 38
-45 112 -42 126 1 4 -3 7 -9 7 -5 0 -8 3 -6 8 3 4 -4 41 -14 82 -38 149 -41
277 -14 755 6 102 15 291 21 440 3 72 8 182 11 245 3 63 6 139 7 167 0 29 5
53 9 53 5 0 5 5 1 12 -8 13 -12 68 -4 68 3 0 5 35 6 78 1 73 8 241 19 452 3
52 7 149 10 215 8 187 15 266 25 320 5 28 12 66 14 85 3 19 12 60 21 90 9 30
18 64 20 75 5 20 19 61 37 105 6 14 14 34 18 45 39 101 178 345 201 353 5 2 9
10 9 18 0 8 5 14 10 14 6 0 10 4 10 9 0 25 188 215 295 300 44 34 87 68 96 76
9 7 26 16 38 20 12 3 21 11 21 16 0 5 6 9 14 9 8 0 16 3 18 8 4 10 244 132
259 132 6 0 25 6 42 14 30 14 103 35 120 36 4 0 21 7 37 15 17 9 30 14 30 11
0 -2 17 0 38 5 72 17 168 30 241 34 40 2 75 6 78 9 3 3 16 1 29 -4 13 -5 24
-6 24 -2 0 4 14 7 30 7 17 0 30 -2 30 -5 0 -3 24 -6 53 -7 56 -1 120 -8 177
-18 19 -3 45 -8 58 -10 16 -3 43 10 83 40 130 96 277 125 458 91 79 -15 228
-109 281 -177 14 -18 31 -38 38 -46 7 -7 10 -13 5 -13 -4 0 -3 -4 3 -8 15 -10
60 -111 70 -157 16 -72 18 -112 10 -188 -8 -82 -57 -213 -97 -261 -126 -151
-266 -220 -444 -220 -139 1 -242 35 -350 118 -40 31 -81 74 -84 88 -1 4 -12
19 -25 32 -12 14 -31 46 -41 70 -20 47 -24 49 -110 62 -87 12 -265 7 -345 -10
-14 -3 -38 -8 -55 -12 -56 -11 -176 -55 -251 -92 -113 -56 -114 -56 -114 -64
0 -5 -5 -8 -11 -8 -9 0 -37 -19 -103 -70 -25 -19 -135 -129 -161 -161 -101
-122 -201 -333 -229 -485 -19 -102 -21 -128 -31 -374 -4 -85 -8 -186 -10 -225
-2 -38 -6 -131 -10 -205 -8 -185 -13 -285 -19 -420 -3 -63 -9 -167 -12 -230
-3 -63 -7 -162 -9 -220 -2 -58 -7 -152 -10 -210 -33 -625 -31 -720 21 -865 14
-38 28 -78 31 -87 3 -10 9 -18 14 -18 5 0 9 -5 9 -11 0 -35 146 -200 216 -245
16 -10 31 -21 34 -24 15 -15 115 -62 184 -85 143 -48 284 -51 436 -8 30 8 60
16 65 18 6 1 17 4 25 8 8 3 83 26 165 52 197 62 294 92 384 123 41 13 79 25
85 26 6 1 58 18 116 36 58 19 107 35 110 36 3 0 12 3 20 6 8 3 53 18 100 32
47 15 92 30 100 33 8 3 20 7 25 7 14 2 216 66 240 76 11 5 73 25 137 44 65 19
126 39 135 45 10 5 23 10 28 10 6 1 28 7 50 13 49 14 47 14 65 21 8 3 76 24
150 47 213 66 309 99 390 137 76 36 206 119 246 157 12 12 43 41 70 66 50 47
115 128 149 188 11 17 23 32 27 32 4 0 7 3 6 8 -1 4 12 37 29 74 34 72 62 148
69 188 3 14 9 39 14 55 5 17 12 53 15 80 9 64 14 287 7 299 -3 6 -7 25 -8 43
-7 107 -85 326 -149 421 -23 33 -28 36 -82 38 -144 4 -274 64 -383 176 -49 50
-112 159 -124 213 -3 17 -9 41 -12 55 -8 33 -12 163 -5 175 2 5 6 21 7 35 12
113 138 298 240 350 16 8 31 18 34 21 8 9 131 50 170 56 171 27 342 -26 475
-146 42 -37 121 -162 117 -183 -1 -5 2 -8 6 -8 5 0 9 -6 10 -12 0 -7 7 -40 15
-74 11 -50 16 -174 7 -194 -1 -3 -2 -8 -1 -12 0 -4 -6 -24 -13 -46 -14 -39
-14 -40 35 -123 27 -46 54 -91 59 -99 38 -62 89 -188 124 -305 35 -114 34
-112 42 -160 7 -48 12 -70 14 -70 6 0 13 -136 13 -255 0 -123 -7 -265 -13
-265 -1 0 -3 -9 -4 -20 -16 -114 -64 -283 -112 -390 -10 -22 -18 -42 -19 -45
-4 -14 -32 -69 -52 -101 -12 -20 -19 -40 -16 -43 4 -3 2 -6 -3 -6 -5 0 -20
-20 -34 -45 -14 -25 -28 -45 -32 -45 -5 0 -8 -5 -8 -11 0 -11 -89 -132 -102
-137 -4 -2 -8 -10 -8 -18 0 -8 -7 -14 -15 -14 -8 0 -15 -4 -15 -9 0 -17 -203
-211 -221 -211 -5 0 -9 -5 -9 -11 0 -5 -4 -7 -10 -4 -5 3 -10 2 -10 -2 0 -11
-115 -93 -129 -93 -5 0 -17 -7 -25 -15 -31 -31 -331 -168 -371 -170 -5 0 -23
-5 -40 -11 -16 -6 -55 -19 -85 -29 -30 -9 -62 -19 -70 -22 -8 -3 -20 -7 -26
-8 -12 -3 -138 -43 -164 -53 -8 -3 -19 -6 -25 -7 -14 -3 -397 -125 -415 -132
-8 -3 -20 -7 -25 -8 -12 -3 -380 -120 -445 -142 -25 -8 -49 -16 -55 -17 -26
-6 -161 -49 -170 -55 -5 -3 -15 -6 -21 -7 -6 -1 -98 -30 -204 -64 -107 -34
-201 -63 -209 -65 -9 -2 -36 -11 -61 -20 -25 -9 -52 -18 -60 -20 -8 -2 -58
-17 -110 -33 -92 -29 -139 -41 -190 -48 -14 -2 -43 -6 -65 -10 -84 -13 -301
-7 -390 11 -16 3 -55 10 -85 16 -30 6 -62 15 -70 19 -8 4 -26 10 -40 11 -14 2
-27 6 -30 9 -3 3 -22 11 -42 17 l-38 11 -36 -69 c-20 -38 -41 -69 -46 -69 -5
0 -7 -4 -3 -9 3 -5 0 -15 -7 -23 -7 -7 -39 -52 -70 -100 -141 -214 -370 -466
-618 -680 -30 -26 -68 -59 -85 -73 -56 -48 -289 -222 -385 -286 -52 -35 -96
-67 -98 -71 -2 -5 -8 -8 -12 -8 -5 0 -51 -26 -102 -59 -51 -32 -117 -71 -145
-86 -29 -15 -53 -30 -53 -34 0 -4 1341 -7 2980 -7 1639 0 2980 3 2980 6 0 3
19 5 43 6 193 4 483 61 742 145 50 16 99 34 110 39 52 24 175 71 181 70 4 -1
10 2 13 7 3 4 49 29 101 55 113 57 186 97 260 146 30 20 57 35 59 33 2 -1 7 2
10 7 3 5 22 20 41 33 40 27 149 109 166 124 6 6 35 30 65 55 29 25 73 64 98
87 26 23 49 43 54 43 4 0 7 3 7 8 0 4 37 46 83 93 45 47 98 106 117 129 72 89
139 179 176 236 21 33 47 69 58 82 11 12 15 22 10 22 -5 0 -4 4 2 8 41 29 284
531 284 588 0 8 5 14 11 14 5 0 8 4 4 9 -3 5 1 27 9 48 36 91 110 408 100 425
-3 4 -1 8 3 8 5 0 9 10 10 23 0 12 3 42 6 67 29 213 30 579 1 790 -3 25 -7 56
-9 70 -2 14 -4 25 -5 25 -1 0 -3 11 -5 25 -3 28 -8 51 -25 125 -6 28 -14 59
-16 70 -8 43 -14 62 -34 130 -11 39 -22 79 -25 90 -3 11 -9 29 -14 40 -11 23
-23 56 -26 70 -22 87 -168 382 -278 560 -37 60 -166 241 -199 280 -79 94 -163
188 -181 204 -10 9 -51 48 -91 86 -40 39 -97 90 -126 115 -30 25 -68 57 -86
73 -17 15 -35 27 -38 27 -4 0 -17 9 -28 20 -29 27 -215 151 -224 150 -4 -1
-10 2 -13 7 -3 5 -26 20 -51 33 -25 14 -52 30 -60 36 -8 7 -22 14 -30 16 -8 2
-17 5 -20 8 -12 13 -238 118 -312 144 -27 10 -48 23 -49 29 -1 7 -3 32 -5 57
-2 25 -6 61 -8 80 -3 19 -7 55 -10 80 -3 25 -8 59 -11 75 -3 17 -10 55 -16 85
-16 86 -19 102 -30 145 -6 22 -10 48 -10 58 0 9 -5 17 -10 17 -6 0 -8 4 -5 8
3 5 -4 37 -15 73 -11 35 -22 72 -24 81 -2 9 -9 27 -16 40 -7 13 -11 23 -9 23
5 0 -29 102 -50 150 -64 150 -121 271 -159 340 -24 44 -53 98 -65 120 -33 62
-118 190 -127 193 -5 2 -9 8 -9 14 0 8 -137 195 -164 224 -6 6 -31 35 -56 65
-95 112 -282 294 -399 389 -24 19 -48 40 -55 45 -139 123 -476 327 -721 436
-96 43 -141 62 -150 63 -5 1 -41 14 -80 29 -38 14 -108 37 -155 51 -47 13 -96
29 -110 34 -14 5 -28 10 -33 10 -25 3 -89 16 -132 27 -27 8 -68 16 -90 19 -22
3 -51 8 -65 11 -32 7 -80 13 -150 21 -30 3 -68 7 -85 10 -35 6 -531 14 -537 9z"/>
<path d="M4497 7143 c-3 -2 -20 -7 -39 -10 -90 -14 -228 -117 -272 -203 -76
-150 -73 -326 9 -451 101 -156 288 -234 463 -194 28 7 52 11 52 9 0 -7 94 47
129 73 205 156 223 470 37 655 -38 38 -132 97 -164 103 -9 2 -17 4 -17 5 0 9
-190 22 -198 13z"/>
</g>
</svg>
